PathFileType	4	(x/y/z)	S09_PSF_T07
DataRate	CameraRate	NumFrames	NumMarkers	Units	OrigDataRate	OrigDataStartFrame	OrigNumFrames
240	240	9	51	mm	240	343	456
Frame#	Time	Sternum			R.Acromium			L.Acromium			Top.Head			R.ASIS			L.ASIS			R.PSIS			L.PSIS			R.Great.Tro			L.Great.Tro			R.Iliac.Crest			L.Iliac.Crest			V.Sacral			R.Thigh.Upper.Post			R.Thigh.Lower.Ant			R.Thigh.Lower.Post			R.Thigh.Upper.Ant			R.Knee.Lat			R.Knee.Med			R.Shank.Upper.Post			R.Shank.Lower.Ant			R.Shank.Lower.Post			R.Shank.Upper.Ant			R.Ankle.Lat			R.Ankle.Med			R.Heel.Upper			R.Heel.Med			R.Heel.Lat			R.Toe.Lat			R.Toe.Med			R.Toe.Tip			L.Thigh.Upper.Post			L.Thigh.Lower.Ant			L.Thigh.Lower.Post			L.Thigh.Upper.Ant			L.Knee.Lat			L.Knee.Med			L.Shank.Upper.Post			L.Shank.Lower.Ant			L.Shank.Lower.Post			L.Shank.Upper.Ant			L.Ankle.Lat			L.Ankle.Med			L.Heel.Upper			L.Heel.Med			L.Heel.Lat			L.Toe.Lat			L.Toe.Med			L.Toe.Tip			Cervical.Spine			Back			
		X1	Y1	Z1	X2	Y2	Z2	X3	Y3	Z3	X4	Y4	Z4	X5	Y5	Z5	X6	Y6	Z6	X7	Y7	Z7	X8	Y8	Z8	X9	Y9	Z9	X10	Y10	Z10	X11	Y11	Z11	X12	Y12	Z12	X13	Y13	Z13	X14	Y14	Z14	X15	Y15	Z15	X16	Y16	Z16	X17	Y17	Z17	X18	Y18	Z18	X19	Y19	Z19	X20	Y20	Z20	X21	Y21	Z21	X22	Y22	Z22	X23	Y23	Z23	X24	Y24	Z24	X25	Y25	Z25	X26	Y26	Z26	X27	Y27	Z27	X28	Y28	Z28	X29	Y29	Z29	X30	Y30	Z30	X31	Y31	Z31	X32	Y32	Z32	X33	Y33	Z33	X34	Y34	Z34	X35	Y35	Z35	X36	Y36	Z36	X37	Y37	Z37	X38	Y38	Z38	X39	Y39	Z39	X40	Y40	Z40	X41	Y41	Z41	X42	Y42	Z42	X43	Y43	Z43	X44	Y44	Z44	X45	Y45	Z45	X46	Y46	Z46	X47	Y47	Z47	X48	Y48	Z48	X49	Y49	Z49	X50	Y50	Z50	X51	Y51	Z51	

343	1.425	323.35	1179.9	316.74	172.87	1416.5	478.44	173.45	1425.6	163.04	199.55	1729.6	326.16	269.52	1003.1	430.7	282.55	1024.3	187.07	51.512	1019.6	340.5	63.392	1030.5	251.83	183.94	908.59	494.35	225.72	934.71	111.05	177.56	1076.4	469.91	171.97	1114	149.15	40.114	990.14	288.14	217.14	664.09	488.86	307.06	571.8	480.18	228.66	571.08	470.78	288.89	660.2	494.45	281.69	491.36	476.78	303.57	473.66	353.47	115.52	432.27	460.23	106.27	341.1	459.71	54.013	388.29	444.93	161.73	388.21	474.66	-79.501	257.43	421.93	-37.444	233.48	342.29	-111.89	300.53	356.15	-128.38	275.33	323.57	-146.74	286.94	385	-104.96	141.52	458.44	-53.041	97.283	368.99	-29.56	65.669	421.89	208.13	663.74	159.11	305.06	585	173.19	236.97	580.25	184.09	279.25	665.26	144.29	301.56	505.52	185.69	309.83	525.33	318.52	255.09	372.78	175.73	316.87	283.04	194.24	254.36	296.09	184.19	316.87	360.64	186.76	267.39	102.36	210.95	279.72	96.194	305.17	196.43	70.198	261.15	208.48	46.193	294.86	197.27	41.276	233.81	370.93	44	181.55	407.39	42.874	291.93	457.72	62.283	233.01	98.168	1468.9	333.6	55.913	1199.4	311.24
344	1.4292	328.22	1180.6	316.71	177.78	1417.4	478.23	178.81	1426.6	162.8	204.97	1730.5	325.86	274.15	1004.3	430.43	287.36	1024.9	186.75	56.217	1020.8	339.78	68.155	1031.6	251.13	188.5	909.71	493.78	230.01	935.22	110.69	182.04	1077.5	469.47	177.32	1114.9	148.7	44.789	991.36	287.43	225.38	665.7	489.15	316.39	574.51	480.42	238.02	572.81	471.28	297.21	662.7	494.56	291.94	493.64	477.08	314.05	476.16	353.71	126.1	433.38	460.22	117.55	342.15	459.57	64.922	388.96	444.87	172.64	389.65	474.55	-67.589	257.31	421.55	-25.298	233.85	341.79	-100.96	299.62	355.66	-117.06	273.99	323.18	-135.47	285.46	384.62	-90.792	141.15	458.44	-38.299	97.619	368.99	-14.16	66.582	421.97	210.65	664.47	158.97	307.07	585.03	172.79	238.99	580.74	183.82	281.76	665.52	143.97	303.1	505.54	185.33	311.68	525.36	318.15	256.17	372.9	175.41	317.63	282.96	194.08	255.16	296.22	183.98	317.91	360.55	186.51	267.52	102.42	210.96	279.82	96.27	305.18	196.48	70.297	261.19	208.49	46.259	294.87	197.3	41.399	233.83	370.98	43.988	181.52	407.43	42.795	291.93	457.79	62.12	232.99	103.35	1469.9	333.29	60.816	1200.6	310.49
345	1.4333	333.05	1181.4	316.68	182.7	1418.3	478.02	184.16	1427.7	162.57	210.39	1731.4	325.58	278.78	1005.4	430.15	292.14	1025.5	186.42	60.909	1021.9	339.09	72.905	1032.8	250.46	193.08	910.85	493.24	234.28	935.73	110.33	186.52	1078.6	469.05	182.62	1115.7	148.27	49.449	992.57	286.76	233.6	667.35	489.45	325.67	577.27	480.6	247.34	574.6	471.77	305.49	665.24	494.63	302.13	495.98	477.31	324.46	478.72	353.91	136.64	434.39	460.21	128.88	343.1	459.42	75.83	389.48	444.82	183.55	391.05	474.42	-55.574	256.95	421.2	-13.044	234.02	341.31	-89.939	298.44	355.23	-105.62	272.4	322.82	-124.09	283.71	384.28	-76.458	140.55	458.44	-23.377	97.773	368.99	1.4372	67.345	422.03	213.14	665.21	158.86	309.05	585.06	172.39	240.98	581.24	183.57	284.23	665.78	143.67	304.62	505.57	184.97	313.48	525.39	317.78	257.23	373.01	175.09	318.38	282.9	193.91	255.95	296.35	183.77	318.93	360.48	186.26	267.64	102.48	210.97	279.93	96.352	305.17	196.53	70.399	261.23	208.51	46.325	294.88	197.33	41.524	233.85	371.03	43.974	181.49	407.48	42.723	291.93	457.85	61.96	232.97	108.53	1471	332.98	65.707	1201.7	309.76
346	1.4375	337.86	1182.1	316.65	187.61	1419.1	477.81	189.5	1428.7	162.36	215.81	1732.2	325.3	283.4	1006.6	429.86	296.89	1026.1	186.07	65.588	1023.1	338.43	77.641	1033.9	249.82	197.7	912.02	492.74	238.53	936.22	109.98	190.99	1079.7	468.65	187.86	1116.5	147.85	54.097	993.77	286.14	241.77	669.04	489.75	334.9	580.09	480.73	256.59	576.43	472.26	313.73	667.81	494.66	312.25	498.36	477.49	334.79	481.34	354.06	147.14	435.31	460.21	140.25	343.95	459.27	86.739	389.85	444.78	194.46	392.4	474.28	-43.455	256.35	420.89	-0.68447	233.97	340.86	-78.824	297	354.83	-94.059	270.56	322.5	-112.6	281.67	383.98	-61.967	139.73	458.45	-8.2914	97.75	368.99	17.214	67.959	422.09	215.6	665.96	158.75	311	585.09	172.02	242.94	581.74	183.33	286.66	666.03	143.39	306.1	505.61	184.63	315.24	525.43	317.42	258.26	373.14	174.78	319.1	282.84	193.75	256.7	296.49	183.56	319.92	360.41	186.01	267.77	102.55	210.97	280.03	96.439	305.17	196.58	70.502	261.27	208.52	46.39	294.89	197.37	41.651	233.87	371.07	43.957	181.47	407.53	42.655	291.92	457.92	61.802	232.94	113.7	1472	332.68	70.587	1202.8	309.04
347	1.4417	342.65	1182.8	316.62	192.53	1420	477.61	194.84	1429.7	162.15	221.23	1733.1	325.04	288.02	1007.7	429.55	301.61	1026.7	185.7	70.254	1024.2	337.81	82.365	1035	249.21	202.36	913.2	492.29	242.75	936.7	109.63	195.47	1080.8	468.26	193.04	1117.4	147.43	58.734	994.93	285.55	249.91	670.75	490.06	344.07	582.94	480.8	265.79	578.31	472.73	321.92	670.41	494.66	322.31	500.78	477.61	345.02	484	354.17	157.59	436.13	460.22	151.67	344.71	459.11	97.648	390.08	444.76	205.36	393.68	474.13	-31.23	255.5	420.61	11.778	233.73	340.44	-67.606	295.3	354.48	-82.38	268.47	322.22	-100.99	279.37	383.73	-47.325	138.69	458.48	6.9481	97.556	369	33.153	68.426	422.14	218.04	666.7	158.67	312.93	585.12	171.65	244.89	582.25	183.12	289.07	666.29	143.11	307.56	505.65	184.3	316.96	525.46	317.07	259.25	373.28	174.49	319.79	282.79	193.58	257.43	296.63	183.36	320.88	360.36	185.77	267.89	102.61	210.98	280.14	96.529	305.17	196.62	70.606	261.3	208.53	46.454	294.9	197.4	41.781	233.89	371.11	43.938	181.44	407.58	42.591	291.91	457.98	61.649	232.92	118.86	1473	332.39	75.459	1204	308.34
348	1.4458	347.42	1183.5	316.6	197.45	1420.9	477.4	200.17	1430.8	161.96	226.66	1734	324.78	292.64	1008.9	429.22	306.3	1027.3	185.32	74.908	1025.4	337.23	87.076	1036.1	248.64	207.06	914.4	491.88	246.96	937.18	109.28	199.96	1081.9	467.87	198.16	1118.2	147.03	63.361	996.07	285.01	258	672.49	490.36	353.17	585.82	480.81	274.93	580.23	473.19	330.06	673.03	494.62	332.3	503.24	477.67	355.15	486.71	354.23	168.01	436.85	460.23	163.11	345.37	458.94	108.56	390.17	444.74	216.26	394.91	473.97	-18.897	254.43	420.36	24.343	233.28	340.05	-56.279	293.35	354.17	-70.576	266.14	321.97	-89.258	276.8	383.51	-32.533	137.46	458.52	22.333	97.197	369.02	49.245	68.752	422.2	220.47	667.46	158.59	314.84	585.14	171.3	246.82	582.76	182.92	291.46	666.54	142.85	308.98	505.7	183.98	318.64	525.48	316.74	260.21	373.41	174.21	320.46	282.75	193.42	258.13	296.78	183.17	321.8	360.31	185.53	268.01	102.68	210.99	280.24	96.621	305.17	196.66	70.71	261.34	208.54	46.515	294.91	197.43	41.913	233.9	371.15	43.918	181.42	407.62	42.53	291.89	458.05	61.498	232.89	124.02	1474	332.11	80.323	1205.1	307.66
349	1.45	352.16	1184.3	316.57	202.37	1421.7	477.19	205.5	1431.8	161.78	232.07	1734.8	324.54	297.25	1010.1	428.86	310.97	1027.9	184.9	79.55	1026.5	336.69	91.774	1037.1	248.1	211.8	915.61	491.5	251.15	937.64	108.92	204.45	1083	467.5	203.2	1118.9	146.62	67.981	997.16	284.5	266.03	674.25	490.65	362.19	588.73	480.78	283.99	582.17	473.62	338.13	675.66	494.56	342.22	505.72	477.67	365.15	489.44	354.24	178.39	437.46	460.26	174.6	345.93	458.77	119.47	390.11	444.73	227.15	396.08	473.82	-6.4553	253.12	420.13	37.01	232.64	339.68	-44.836	291.14	353.9	-58.642	263.57	321.77	-77.391	273.98	383.34	-17.593	136.04	458.59	37.859	96.682	369.06	65.479	68.944	422.26	222.89	668.21	158.53	316.73	585.16	170.97	248.73	583.28	182.73	293.82	666.78	142.6	310.38	505.76	183.68	320.29	525.51	316.41	261.14	373.56	173.94	321.1	282.71	193.25	258.8	296.94	182.99	322.7	360.27	185.29	268.12	102.75	211	280.34	96.714	305.16	196.7	70.813	261.38	208.55	46.574	294.92	197.46	42.047	233.92	371.19	43.895	181.4	407.67	42.47	291.88	458.12	61.351	232.86	129.16	1475	331.83	85.182	1206.2	306.99
350	1.4542	356.89	1185	316.54	207.3	1422.6	476.99	210.82	1432.8	161.61	237.49	1735.7	324.3	301.87	1011.2	428.48	315.6	1028.5	184.46	84.181	1027.5	336.19	96.459	1038.1	247.61	216.59	916.83	491.17	255.33	938.08	108.56	208.96	1084.1	467.13	208.18	1119.7	146.22	72.594	998.21	284.04	274.02	676.01	490.94	371.13	591.65	480.69	292.97	584.14	474.03	346.13	678.3	494.46	352.05	508.23	477.63	375.04	492.21	354.22	188.74	437.96	460.29	186.11	346.4	458.59	130.39	389.91	444.74	238.03	397.17	473.66	6.098	251.59	419.93	49.778	231.8	339.35	-33.275	288.69	353.65	-46.574	260.75	321.6	-65.386	270.91	383.21	-2.5024	134.46	458.68	53.522	96.018	369.11	81.85	69.01	422.34	225.3	668.97	158.47	318.6	585.18	170.65	250.62	583.8	182.55	296.16	667.03	142.36	311.76	505.82	183.38	321.92	525.53	316.09	262.02	373.71	173.7	321.71	282.68	193.07	259.44	297.1	182.82	323.56	360.24	185.06	268.24	102.81	211.02	280.44	96.807	305.16	196.74	70.916	261.42	208.55	46.629	294.94	197.49	42.184	233.94	371.23	43.871	181.38	407.72	42.412	291.86	458.19	61.207	232.83	134.28	1475.9	331.57	90.036	1207.3	306.35
351	1.4583	361.6	1185.8	316.5	212.22	1423.4	476.79	216.13	1433.8	161.45	242.91	1736.5	324.08	306.49	1012.4	428.07	320.2	1029.1	184	88.802	1028.6	335.72	101.13	1039	247.15	221.43	918.05	490.87	259.5	938.51	108.19	213.49	1085.2	466.76	213.09	1120.4	145.82	77.203	999.2	283.62	281.94	677.79	491.2	379.98	594.58	480.56	301.88	586.12	474.41	354.06	680.94	494.35	361.79	510.76	477.53	384.79	494.98	354.14	199.05	438.36	460.33	197.65	346.77	458.41	141.31	389.57	444.75	248.9	398.21	473.49	18.764	249.84	419.74	62.65	230.76	339.04	-21.591	285.98	353.44	-34.37	257.7	321.46	-53.238	267.59	383.12	12.739	132.72	458.81	69.322	95.216	369.19	98.354	68.962	422.44	227.69	669.73	158.43	320.46	585.19	170.35	252.5	584.34	182.4	298.48	667.27	142.13	313.1	505.88	183.09	323.52	525.54	315.78	262.86	373.86	173.47	322.29	282.66	192.9	260.04	297.26	182.66	324.38	360.21	184.82	268.35	102.88	211.03	280.53	96.9	305.16	196.77	71.018	261.47	208.55	46.681	294.95	197.52	42.322	233.96	371.26	43.846	181.36	407.77	42.353	291.84	458.25	61.066	232.8	139.4	1476.9	331.31	94.887	1208.4	305.72
